<?xml version="1.0" encoding="iso-8859-1"?>
<!-- Generator: Adobe Illustrator 19.0.0, SVG Export Plug-In . SVG Version: 6.00 Build 0)  -->
<svg version="1.1" id="Layer_1" xmlns="http://www.w3.org/2000/svg" xmlns:xlink="http://www.w3.org/1999/xlink" x="0px" y="0px"
	 viewBox="0 0 512 512" style="enable-background:new 0 0 512 512;" xml:space="preserve">
<path style="fill:#1EB615;" d="M440.725,92.032c0-11.488-9.399-20.887-20.887-20.887H31.331c-11.488,0-20.887,9.399-20.887,20.887
	v388.507c0,11.488,9.399,20.887,20.887,20.887h388.507c11.488,0,20.887-9.399,20.887-20.887V92.032z"/>
<path style="fill:#0084FF;" d="M440.725,480.539V92.032c0-5.744-2.35-10.966-6.137-14.752L16.579,495.29
	c3.786,3.786,9.008,6.136,14.752,6.136h388.507C431.326,501.426,440.725,492.027,440.725,480.539z"/>
<path style="fill:#BCBEC0;" d="M225.355,286.513l208.994,208.994c3.922-3.803,6.375-9.11,6.375-14.969V92.032
	c0-5.744-2.35-10.966-6.137-14.752L225.355,286.513z"/>
<g>
	<path style="fill:#FFFFFF;" d="M419.838,71.144h-23.421L10.444,457.118v23.421c0,11.488,9.399,20.887,20.887,20.887h23.421
		l385.973-385.973V92.032C440.725,80.544,431.326,71.144,419.838,71.144z"/>
	<path style="fill:#FFFFFF;" d="M224.607,331.569l169.856,169.857h25.375c11.488,0,20.887-9.399,20.887-20.887v-21.467
		l-171.81-171.81L224.607,331.569z"/>
</g>
<path style="fill:#F54F33;" d="M391.898,10.574c-60.56,0-109.658,49.025-109.658,109.501c0,60.472,109.658,162.034,109.658,162.034
	s109.658-101.562,109.658-162.034C501.556,59.599,452.462,10.574,391.898,10.574z"/>
<path style="fill:#FFFFFF;" d="M391.898,167.537c-26.327,0-47.673-21.297-47.673-47.566s21.346-47.565,47.673-47.565
	c26.336,0,47.677,21.296,47.677,47.565S418.234,167.537,391.898,167.537z"/>
<path d="M115.441,238.116c34.745,0,63.011-28.267,63.011-63.011c0-5.768-4.676-10.444-10.444-10.444h-46.78
	c-5.767,0-10.444,4.676-10.444,10.444c0,5.768,4.677,10.444,10.444,10.444h35.026c-4.657,18.192-21.189,31.68-40.813,31.68
	c-23.227,0-42.123-18.897-42.123-42.123s18.897-42.123,42.123-42.123c10.003,0,19.698,3.566,27.3,10.041
	c4.388,3.74,10.983,3.214,14.722-1.178c3.74-4.391,3.212-10.983-1.178-14.722c-11.376-9.691-25.881-15.028-40.843-15.028
	c-34.745,0-63.011,28.267-63.011,63.011S80.697,238.116,115.441,238.116z"/>
<path d="M512,120.075C512,53.937,458.122,0.131,391.898,0.131c-44.61,0-83.615,24.417-104.325,60.57H31.331
	C14.055,60.701,0,74.756,0,92.032v388.507c0,17.276,14.055,31.331,31.331,31.331h388.507c17.276,0,31.331-14.055,31.331-31.331
	V234.714c1.195-1.408,2.389-2.826,3.587-4.265C492.741,184.794,512,147.66,512,120.075z M391.898,21.018
	c54.707,0,99.215,44.437,99.215,99.057c0,42.515-66.06,115.439-99.217,147.631c-33.155-32.178-99.213-105.078-99.213-147.631
	C292.683,65.455,337.191,21.018,391.898,21.018z M31.331,81.588h246.806c-4.111,12.085-6.341,25.03-6.341,38.487
	c0,13.481,4.612,29.248,13.75,47.171L20.887,431.905V92.032C20.887,86.273,25.572,81.588,31.331,81.588z M20.887,480.539v-19.094
	l275.4-275.401c6.807,10.82,15.034,22.305,24.65,34.426L50.425,490.982H31.331C25.572,490.982,20.887,486.297,20.887,480.539z
	 M224.607,346.34l144.641,144.642H79.965L224.607,346.34z M419.838,490.982h-21.049L239.378,331.569l29.538-29.538l161.366,161.367
	v17.14C430.282,486.297,425.597,490.982,419.838,490.982z M430.282,433.859L283.686,287.261l50.597-50.597
	c25.631,29.981,49.451,52.119,50.518,53.108c2.002,1.854,4.548,2.781,7.096,2.781c2.548,0,5.094-0.927,7.096-2.781
	c0.791-0.732,14.054-13.061,31.287-31.575L430.282,433.859L430.282,433.859z"/>
<path d="M391.898,177.981c32.047,0,58.121-26.023,58.121-58.009s-26.074-58.008-58.121-58.008
	c-32.046,0-58.117,26.022-58.117,58.008S359.852,177.981,391.898,177.981z M391.898,82.851c20.531,0,37.234,16.652,37.234,37.121
	c0,20.47-16.703,37.122-37.234,37.122c-20.528,0-37.23-16.652-37.23-37.122C354.668,99.503,371.37,82.851,391.898,82.851z"/>
<path d="M287.726,469.051h4.676c5.768,0,10.444-4.676,10.444-10.444c0-5.768-4.676-10.444-10.444-10.444h-4.676
	c-5.767,0-10.444,4.676-10.444,10.444C277.282,464.375,281.958,469.051,287.726,469.051z"/>
<path d="M152.498,469.051h101.44c5.767,0,10.444-4.676,10.444-10.444c0-5.768-4.677-10.444-10.444-10.444h-101.44
	c-5.767,0-10.444,4.676-10.444,10.444C142.055,464.375,146.731,469.051,152.498,469.051z"/>
<g>
</g>
<g>
</g>
<g>
</g>
<g>
</g>
<g>
</g>
<g>
</g>
<g>
</g>
<g>
</g>
<g>
</g>
<g>
</g>
<g>
</g>
<g>
</g>
<g>
</g>
<g>
</g>
<g>
</g>
</svg>
