<?xml version="1.0" encoding="utf-8"?>
<!-- Generator: Adobe Illustrator 23.0.3, SVG Export Plug-In . SVG Version: 6.00 Build 0)  -->
<svg version="1.1" id="Capa_1" xmlns="http://www.w3.org/2000/svg" xmlns:xlink="http://www.w3.org/1999/xlink" x="0px" y="0px"
	 viewBox="0 0 448 448" style="enable-background:new 0 0 448 448;" xml:space="preserve">
<style type="text/css">
	.st0{fill:#0B9D58;}
	.st1{fill:#64C083;}
</style>
<g id="Capa_1">
	
		<image style="overflow:visible;opacity:0.75;" width="348" height="412" xlink:href="8C324229.png"  transform="matrix(1 0 0 1 63 28)">
	</image>
	<g>
		<g>
			<path class="st0" d="M378.9,179.2c0,120.5-152.2,215.6-152.2,215.6S74.6,299.7,74.6,179.2c0-84,68.2-152.2,152.2-152.2
				S378.9,95.2,378.9,179.2z"/>
			<circle class="st1" cx="226.7" cy="181.6" r="111.7"/>
			<path d="M226.7,62.4c-65.8,0-119.1,53.3-119.1,119.1s53.3,119.1,119.1,119.1s119.1-53.3,119.1-119.1
				C345.8,115.8,292.5,62.5,226.7,62.4z M226.7,285.8c-57.6,0-104.2-46.6-104.2-104.2S169.1,77.3,226.7,77.3S331,124,331,181.6
				C330.9,239.1,284.3,285.7,226.7,285.8z"/>
			<path d="M226.7,20.7c-87.5,0.1-158.4,71-158.5,158.5c0,51,26.9,105.4,77.9,157.4c23.4,23.9,49.3,45.2,77.3,63.6
				c2.1,1.3,4.7,1.3,6.7,0c28-18.4,53.9-39.6,77.3-63.6c50.9-52,77.8-106.5,77.8-157.4C385.2,91.7,314.3,20.8,226.7,20.7L226.7,20.7
				z M226.7,387.2C204.6,372.5,80.9,285,80.9,179.2c0-80.5,65.3-145.8,145.8-145.8s145.8,65.3,145.8,145.8
				C372.6,285,248.9,372.5,226.7,387.2z"/>
			<g>
				<g>
					<g>
						<rect x="180.5" y="160" width="18.5" height="43.1"/>
						<rect x="168.2" y="215.4" width="117" height="18.5"/>
						<rect x="217.5" y="160" width="18.5" height="43.1"/>
						<polygon points="226.7,104.6 168.2,135.4 168.2,147.7 285.3,147.7 285.3,135.4 						"/>
						<rect x="254.5" y="160" width="18.5" height="43.1"/>
					</g>
				</g>
			</g>
		</g>
	</g>
</g>
</svg>
