<?xml version="1.0" encoding="UTF-8" standalone="no"?>
<!-- Created with Inkscape (http://www.inkscape.org/) -->

<svg
   xmlns:dc="http://purl.org/dc/elements/1.1/"
   xmlns:cc="http://creativecommons.org/ns#"
   xmlns:rdf="http://www.w3.org/1999/02/22-rdf-syntax-ns#"
   xmlns:svg="http://www.w3.org/2000/svg"
   xmlns="http://www.w3.org/2000/svg"
   xmlns:sodipodi="http://sodipodi.sourceforge.net/DTD/sodipodi-0.dtd"
   xmlns:inkscape="http://www.inkscape.org/namespaces/inkscape"
   width="30px"
   height="30px"
   viewBox="0 0 30 30"
   version="1.1"
   id="SVGRoot"
   inkscape:version="0.92.4 (5da689c313, 2019-01-14)"
   sodipodi:docname="maplogo-sml.svg">
  <defs
     id="defs4137" />
  <sodipodi:namedview
     id="base"
     pagecolor="#ffffff"
     bordercolor="#666666"
     borderopacity="1.0"
     inkscape:pageopacity="0.0"
     inkscape:pageshadow="2"
     inkscape:zoom="12.067956"
     inkscape:cx="36.144105"
     inkscape:cy="13.885954"
     inkscape:document-units="px"
     inkscape:current-layer="layer1"
     showgrid="false"
     inkscape:window-width="1920"
     inkscape:window-height="1009"
     inkscape:window-x="1366"
     inkscape:window-y="34"
     inkscape:window-maximized="1"
     inkscape:grid-bbox="true" />
  <metadata
     id="metadata4140">
    <rdf:RDF>
      <cc:Work
         rdf:about="">
        <dc:format>image/svg+xml</dc:format>
        <dc:type
           rdf:resource="http://purl.org/dc/dcmitype/StillImage" />
        <dc:title></dc:title>
      </cc:Work>
    </rdf:RDF>
  </metadata>
  <g
     inkscape:label="Layer 1"
     inkscape:groupmode="layer"
     id="layer1">
    <polygon
       transform="matrix(0.35396503,-0.00607728,0,0.46852688,-116.21439,-82.783623)"
       style="display:inline;fill:#009688;fill-opacity:1"
       class="st4"
       points="370.8,245.3 330.3,226.1 369.2,206.9 411.3,226.1 "
       id="polygon3733" />
    <polygon
       transform="matrix(0.35396503,-0.00607728,0,0.46852688,-116.21439,-84.500008)"
       style="display:inline;fill:#26b99a;fill-opacity:1"
       class="st4"
       points="369.2,206.9 411.3,226.1 370.8,245.3 330.3,226.1 "
       id="polygon3733-3" />
    <polygon
       transform="matrix(0.35396503,-0.00607728,0,0.46852688,-116.21439,-86.216392)"
       style="display:inline;fill:#52c7b8;fill-opacity:1"
       class="st4"
       points="411.3,226.1 370.8,245.3 330.3,226.1 369.2,206.9 "
       id="polygon3733-3-6" />
    <path
       inkscape:connector-curvature="0"
       id="path982"
       style="fill:#f0f9fc;fill-opacity:1;fill-rule:nonzero;stroke:none;stroke-width:0.05777766"
       d="m 15.242362,20.738399 -1.882811,1.082472 -3.243229,-1.843683 1.882742,-1.082473 z" />
    <path
       inkscape:connector-curvature="0"
       id="path986"
       style="fill:#00b3d1;fill-opacity:1;fill-rule:nonzero;stroke:none;stroke-width:0.05777766"
       d="M 14.964423,20.752903 13.384018,21.659667 10.3942,19.962679 11.974596,19.055976 Z" />
    <path
       inkscape:connector-curvature="0"
       id="path990"
       style="fill:#078599;fill-opacity:1;fill-rule:nonzero;stroke:none;stroke-width:0.05777766"
       d="m 11.97459,19.274381 2.798458,1.588306 0.191366,-0.109779 -2.989824,-1.696927 -1.58039,0.906703 0.191416,0.108622 z" />
    <path
       inkscape:connector-curvature="0"
       id="path994"
       style="fill:#d7f3ff;fill-opacity:1;fill-rule:nonzero;stroke:none;stroke-width:0.05777766"
       d="m 15.242362,20.738399 -5.7e-4,0.262665 -1.88275,1.082519 5.71e-4,-0.262712 z" />
    <path
       inkscape:connector-curvature="0"
       id="path998"
       style="fill:#afd9ef;fill-opacity:1;fill-rule:nonzero;stroke:none;stroke-width:0.05777766"
       d="m 13.359559,21.820889 -4.37e-4,0.262717 -3.243232,-1.843684 7.41e-4,-0.262711 z" />
    <g
       transform="matrix(0.18754629,0,0,-0.19620535,29.386045,5.6844106)"
       id="g1348"
       style="display:inline">
      <path
         inkscape:connector-curvature="0"
         id="path1350"
         style="fill:#00adb6;fill-opacity:1;fill-rule:nonzero;stroke:none"
         d="m 0,0 -26.229,-15.285 -44.825,25.879 26.23,15.285 z" />
    </g>
    <g
       transform="matrix(0.18754629,0,0,-0.19620535,29.386045,5.6844106)"
       id="g1352"
       style="display:inline">
      <path
         inkscape:connector-curvature="0"
         id="path1354"
         style="fill:#d7f3ff;fill-opacity:1;fill-rule:nonzero;stroke:none"
         d="m 0,0 -0.078,-58.783 -26.23,-15.285 0.079,58.783 z" />
    </g>
    <g
       transform="matrix(0.18754629,0,0,-0.19620535,24.466813,8.6834297)"
       id="g1356"
       style="display:inline">
      <path
         inkscape:connector-curvature="0"
         id="path1358"
         style="fill:#afd9ef;fill-opacity:1;fill-rule:nonzero;stroke:none"
         d="m 0,0 -0.078,-58.783 -44.824,25.879 0.078,58.783 z" />
    </g>
    <g
       transform="matrix(0.18754629,0,0,-0.19620535,27.657849,4.2346988)"
       id="g1360"
       style="display:inline">
      <path
         inkscape:connector-curvature="0"
         id="path1362"
         style="fill:#03596d;fill-opacity:1;fill-rule:nonzero;stroke:none"
         d="M 0,0 -17.445,-10.166 -53.51,9.854 -36.064,20.021 Z" />
    </g>
    <g
       transform="matrix(0.18754629,0,0,-0.19620535,27.657849,4.2346988)"
       id="g1364"
       style="display:inline">
      <path
         inkscape:connector-curvature="0"
         id="path1366"
         style="fill:#d7f3ff;fill-opacity:1;fill-rule:nonzero;stroke:none"
         d="m 0,0 -0.052,-5.455 -17.445,-10.166 0.052,5.455 z" />
    </g>
    <g
       transform="matrix(0.18754629,0,0,-0.19620535,17.340703,5.8233169)"
       id="g1372"
       style="display:inline">
      <path
         inkscape:connector-curvature="0"
         id="path1374"
         style="fill:#03596d;fill-opacity:1;fill-rule:nonzero;stroke:none"
         d="M 0,0 7.312,-4.217 V -9.696 L 0,-5.473 Z" />
    </g>
    <g
       transform="matrix(0.18754629,0,0,-0.19620535,19.466428,7.1068927)"
       id="g1376"
       style="display:inline">
      <path
         inkscape:connector-curvature="0"
         id="path1378"
         style="fill:#03596d;fill-opacity:1;fill-rule:nonzero;stroke:none"
         d="M 0,0 7.312,-4.223 V -9.702 L 0,-5.479 Z" />
    </g>
    <g
       transform="matrix(0.18754629,0,0,-0.19620535,21.592178,8.3916032)"
       id="g1380"
       style="display:inline">
      <path
         inkscape:connector-curvature="0"
         id="path1382"
         style="fill:#03596d;fill-opacity:1;fill-rule:nonzero;stroke:none"
         d="M 0,0 7.312,-4.223 V -9.696 L 0,-5.473 Z" />
    </g>
    <g
       transform="matrix(0.18754629,0,0,-0.19620535,17.340703,7.7688943)"
       id="g1384"
       style="display:inline">
      <path
         inkscape:connector-curvature="0"
         id="path1386"
         style="fill:#03596d;fill-opacity:1;fill-rule:nonzero;stroke:none"
         d="M 0,0 7.312,-4.217 V -9.696 L 0,-5.473 Z" />
    </g>
    <g
       transform="matrix(0.18754629,0,0,-0.19620535,19.466428,9.0524755)"
       id="g1388"
       style="display:inline">
      <path
         inkscape:connector-curvature="0"
         id="path1390"
         style="fill:#03596d;fill-opacity:1;fill-rule:nonzero;stroke:none"
         d="M 0,0 7.312,-4.223 V -9.702 L 0,-5.479 Z" />
    </g>
    <g
       transform="matrix(0.18754629,0,0,-0.19620535,21.592178,10.337169)"
       id="g1392"
       style="display:inline">
      <path
         inkscape:connector-curvature="0"
         id="path1394"
         style="fill:#03596d;fill-opacity:1;fill-rule:nonzero;stroke:none"
         d="M 0,0 7.312,-4.223 V -9.696 L 0,-5.473 Z" />
    </g>
    <g
       transform="matrix(0.18754629,0,0,-0.19620535,17.340703,9.7144607)"
       id="g1396"
       style="display:inline">
      <path
         inkscape:connector-curvature="0"
         id="path1398"
         style="fill:#03596d;fill-opacity:1;fill-rule:nonzero;stroke:none"
         d="M 0,0 7.312,-4.217 V -9.702 L 0,-5.479 Z" />
    </g>
    <g
       transform="matrix(0.18754629,0,0,-0.19620535,19.466428,10.998037)"
       id="g1400"
       style="display:inline">
      <path
         inkscape:connector-curvature="0"
         id="path1402"
         style="fill:#03596d;fill-opacity:1;fill-rule:nonzero;stroke:none"
         d="M 0,0 7.312,-4.223 V -9.702 L 0,-5.479 Z" />
    </g>
    <g
       transform="matrix(0.18754629,0,0,-0.19620535,21.592178,12.282759)"
       id="g1404"
       style="display:inline">
      <path
         inkscape:connector-curvature="0"
         id="path1406"
         style="fill:#03596d;fill-opacity:1;fill-rule:nonzero;stroke:none"
         d="M 0,0 7.312,-4.223 V -9.696 L 0,-5.479 Z" />
    </g>
    <g
       transform="matrix(0.18754629,0,0,-0.19620535,17.340703,11.660043)"
       id="g1408"
       style="display:inline">
      <path
         inkscape:connector-curvature="0"
         id="path1410"
         style="fill:#03596d;fill-opacity:1;fill-rule:nonzero;stroke:none"
         d="M 0,0 7.312,-4.224 V -9.702 L 0,-5.479 Z" />
    </g>
    <g
       transform="matrix(0.18754629,0,0,-0.19620535,19.466428,12.944777)"
       id="g1412"
       style="display:inline">
      <path
         inkscape:connector-curvature="0"
         id="path1414"
         style="fill:#03596d;fill-opacity:1;fill-rule:nonzero;stroke:none"
         d="M 0,0 7.312,-4.217 V -9.696 L 0,-5.474 Z" />
    </g>
    <g
       transform="matrix(0.18754629,0,0,-0.19620535,21.592178,14.228347)"
       id="g1416"
       style="display:inline">
      <path
         inkscape:connector-curvature="0"
         id="path1418"
         style="fill:#03596d;fill-opacity:1;fill-rule:nonzero;stroke:none"
         d="M 0,0 7.312,-4.223 V -9.696 L 0,-5.479 Z" />
    </g>
    <g
       transform="matrix(0.18754629,0,0,-0.19620535,17.340703,13.606968)"
       id="g1420"
       style="display:inline">
      <path
         inkscape:connector-curvature="0"
         id="path1422"
         style="fill:#03596d;fill-opacity:1;fill-rule:nonzero;stroke:none"
         d="M 0,0 7.312,-4.217 V -9.695 L 0,-5.473 Z" />
    </g>
    <g
       transform="matrix(0.18754629,0,0,-0.19620535,19.466428,14.890343)"
       id="g1424"
       style="display:inline">
      <path
         inkscape:connector-curvature="0"
         id="path1426"
         style="fill:#03596d;fill-opacity:1;fill-rule:nonzero;stroke:none"
         d="M 0,0 7.312,-4.224 V -9.703 L 0,-5.479 Z" />
    </g>
    <g
       transform="matrix(0.18754629,0,0,-0.19620535,21.592178,16.175259)"
       id="g1428"
       style="display:inline">
      <path
         inkscape:connector-curvature="0"
         id="path1430"
         style="fill:#03596d;fill-opacity:1;fill-rule:nonzero;stroke:none"
         d="M 0,0 7.312,-4.223 V -9.695 L 0,-5.473 Z" />
    </g>
    <g
       transform="matrix(0.18754629,0,0,-0.19620535,28.475985,7.574782)"
       id="g1432"
       style="display:inline">
      <path
         inkscape:connector-curvature="0"
         id="path1434"
         style="fill:#00adb6;fill-opacity:1;fill-rule:nonzero;stroke:none"
         d="m 0,0 -15.221,-8.787 v -5.48 L 0,-5.479 Z" />
    </g>
    <g
       transform="matrix(0.18754629,0,0,-0.19620535,28.475985,9.5205532)"
       id="g1436"
       style="display:inline">
      <path
         inkscape:connector-curvature="0"
         id="path1438"
         style="fill:#00adb6;fill-opacity:1;fill-rule:nonzero;stroke:none"
         d="m 0,0 -15.221,-8.788 v -5.48 L 0,-5.479 Z" />
    </g>
    <g
       transform="matrix(0.18754629,0,0,-0.19620535,28.475985,11.466519)"
       id="g1440"
       style="display:inline">
      <path
         inkscape:connector-curvature="0"
         id="path1442"
         style="fill:#00adb6;fill-opacity:1;fill-rule:nonzero;stroke:none"
         d="m 0,0 -15.221,-8.788 v -5.479 L 0,-5.479 Z" />
    </g>
    <g
       transform="matrix(0.18754629,0,0,-0.19620535,28.475985,13.412479)"
       id="g1444"
       style="display:inline">
      <path
         inkscape:connector-curvature="0"
         id="path1446"
         style="fill:#00adb6;fill-opacity:1;fill-rule:nonzero;stroke:none"
         d="m 0,0 -15.221,-8.787 v -5.48 L 0,-5.479 Z" />
    </g>
    <g
       transform="matrix(0.18754629,0,0,-0.19620535,28.475985,15.358256)"
       id="g1448"
       style="display:inline">
      <path
         inkscape:connector-curvature="0"
         id="path1450"
         style="fill:#00adb6;fill-opacity:1;fill-rule:nonzero;stroke:none"
         d="m 0,0 -15.221,-8.788 v -5.48 L 0,-5.479 Z" />
    </g>
    <g
       transform="matrix(-0.03018323,-0.01474597,-0.01712751,0.01574586,25.676481,18.027044)"
       style="display:inline;fill:#373e48"
       id="g4226">
      <path
         style="fill:#373e48"
         inkscape:connector-curvature="0"
         d="m 141.24219,141.24219 h -17.65625 c -4.8711,0 -8.82813,-3.95703 -8.82813,-8.82813 0,-4.875 3.95703,-8.82812 8.82813,-8.82812 h 17.65625 c 4.87109,0 8.82812,3.95312 8.82812,8.82812 0,4.8711 -3.95703,8.82813 -8.82812,8.82813 z m 0,0"
         id="path4218" />
      <path
         style="fill:#373e48"
         inkscape:connector-curvature="0"
         d="m 79.449219,141.24219 h -17.65625 c -4.871094,0 -8.828125,-3.95703 -8.828125,-8.82813 0,-4.875 3.957031,-8.82812 8.828125,-8.82812 h 17.65625 c 4.871093,0 8.828125,3.95312 8.828125,8.82812 0,4.8711 -3.957032,8.82813 -8.828125,8.82813 z m 0,0"
         id="path4220" />
      <path
         style="fill:#373e48"
         inkscape:connector-curvature="0"
         d="m 375.61328,464.03906 c -1.26172,0 -2.54297,-0.26562 -3.75,-0.83984 -5.87891,-2.76172 -12.18359,-4.16406 -18.76172,-4.16406 h -10.53125 c -4.87109,0 -8.82422,-3.95703 -8.82422,-8.82813 0,-4.87109 3.95313,-8.82812 8.82422,-8.82812 h 10.53125 c 9.19141,0 18.02735,1.96875 26.28125,5.84375 4.41406,2.07422 6.30469,7.33593 4.23047,11.75 -1.51172,3.1875 -4.6875,5.0664 -8,5.0664 z m -75.28125,-5.0039 h -33.79297 c -4.87109,0 -8.82812,-3.95703 -8.82812,-8.82813 0,-4.87109 3.95703,-8.82812 8.82812,-8.82812 h 33.79297 c 4.87109,0 8.82813,3.95703 8.82813,8.82812 0,4.8711 -3.95704,8.82813 -8.82813,8.82813 z m -76.03125,0 h -33.79297 c -4.87109,0 -8.82812,-3.95703 -8.82812,-8.82813 0,-4.87109 3.95703,-8.82812 8.82812,-8.82812 h 33.79297 c 4.87109,0 8.82813,3.95703 8.82813,8.82812 0,4.8711 -3.95704,8.82813 -8.82813,8.82813 z m -74.68359,-8.54688 c -1.33985,0 -2.70703,-0.30859 -3.98828,-0.95312 -11.07813,-5.63282 -21.08204,-13.73438 -28.91797,-23.4375 -3.06641,-3.79297 -2.47266,-9.34766 1.3125,-12.41016 3.78906,-3.0625 9.35156,-2.47266 12.41406,1.31641 6.28516,7.78515 14.30859,14.28125 23.17969,18.79296 4.34375,2.20704 6.08203,7.51954 3.875,11.8711 -1.55469,3.05469 -4.65235,4.82031 -7.875,4.82031 z m -42.84766,-59.32031 c -4.30859,0 -8.078124,-3.15235 -8.722655,-7.53906 -0.625,-4.22657 -0.945313,-8.55469 -0.945313,-12.8711 0,-8.2539 1.160157,-16.42578 3.425778,-24.30859 1.35157,-4.6875 6.24219,-7.37109 10.92969,-6.03906 4.6875,1.35156 7.39063,6.24218 6.03906,10.92968 -1.82031,6.29297 -2.73828,12.82422 -2.73828,19.41797 0,3.45313 0.25781,6.91407 0.75,10.30078 0.71485,4.82032 -2.62109,9.31641 -7.4414,10.01954 -0.4336,0.0625 -0.86329,0.0898 -1.29688,0.0898 z m 23.94141,-69.09375 c -2.33203,0 -4.66016,-0.91797 -6.40235,-2.7461 -3.36328,-3.53125 -3.21875,-9.11718 0.3086,-12.48046 9.0664,-8.625 20.05078,-15.34375 31.76172,-19.4375 4.59375,-1.61719 9.64062,0.80859 11.25,5.41797 1.60546,4.60156 -0.8125,9.64062 -5.42188,11.24609 -9.36719,3.27734 -18.14844,8.66016 -25.41406,15.57422 -1.70313,1.62109 -3.89453,2.42578 -6.08203,2.42578 z m 104.11328,-21.9375 h -33.79297 c -4.875,0 -8.82813,-3.95313 -8.82813,-8.82813 0,-4.87109 3.95313,-8.82422 8.82813,-8.82422 h 33.79297 c 4.87109,0 8.82422,3.95313 8.82422,8.82422 0,4.875 -3.95313,8.82813 -8.82422,8.82813 z m 42.23047,-0.0703 c -4.70703,0 -8.61719,-3.70703 -8.82032,-8.45704 -0.20312,-4.87109 3.57422,-8.98437 8.44922,-9.19531 10.09766,-0.43359 19.78125,-2.97656 28.78516,-7.5664 4.35156,-2.22657 9.66797,-0.48438 11.875,3.85547 2.20703,4.34375 0.48437,9.66015 -3.85938,11.875 -11.28125,5.74609 -23.41015,8.93359 -36.05078,9.47265 -0.125,0.008 -0.25781,0.0156 -0.3789,0.0156 z m 63.39062,-36.5 c -1.64062,0 -3.30078,-0.46094 -4.78515,-1.41407 -4.09766,-2.64843 -5.26954,-8.11328 -2.62891,-12.20703 5.50781,-8.51953 9.02734,-17.89453 10.49609,-27.87109 0.70313,-4.82031 5.1875,-8.16406 10.00782,-7.44922 4.82031,0.70703 8.15625,5.19141 7.45312,10.01172 -1.82812,12.48828 -6.25,24.22266 -13.12891,34.88672 -1.67578,2.62109 -4.51171,4.04297 -7.41406,4.04297 z m 6.76953,-72.80078 c -3.47656,0 -6.76953,-2.06641 -8.17187,-5.48438 -3.76953,-9.19922 -9.60547,-17.70703 -16.87891,-24.60156 -3.54297,-3.35547 -3.68359,-8.94141 -0.33594,-12.48047 3.35547,-3.54297 8.94141,-3.68359 12.48047,-0.33594 9.06641,8.59766 16.35938,19.21485 21.0625,30.71094 1.84766,4.51172 -0.30859,9.66406 -4.82031,11.51953 -1.08594,0.45703 -2.22266,0.67188 -3.33594,0.67188 z m 0,0"
         id="path4222" />
      <path
         style="fill:#373e48"
         inkscape:connector-curvature="0"
         d="m 291.1875,143.19922 c -0.65234,0 -1.30859,-0.0703 -1.96875,-0.21875 -5.07813,-1.15625 -10.3125,-1.73828 -15.5625,-1.73828 -4.875,0 -8.82813,-3.95703 -8.82813,-8.82813 0,-4.875 3.95313,-8.82812 8.82813,-8.82812 6.57422,0 13.125,0.73437 19.48828,2.17969 4.75,1.08593 7.72656,5.82031 6.64844,10.5664 -0.9336,4.09766 -4.58203,6.86719 -8.60547,6.86719 z m 0,0"
         id="path4224" />
    </g>
    <path
       style="display:inline;fill:#7383bf;stroke-width:0.02037917"
       inkscape:connector-curvature="0"
       d="m 18.215131,17.030284 c -0.05129,0.0366 -0.129773,0.05394 -0.208296,0.041 l -1.115848,-0.18422 0.329433,0.745411 c 0.03476,0.0787 -0.03095,0.160459 -0.146569,0.182648 -0.115599,0.02217 -0.237618,-0.02366 -0.272442,-0.102336 l -0.43728,-0.989701 c -0.04483,-0.101279 0.106015,-0.208907 0.257767,-0.183936 l 1.481514,0.244512 c 0.117732,0.01944 0.191561,0.09957 0.164983,0.179015 -0.0089,0.02646 -0.02772,0.04932 -0.05325,0.06759 z m 0,0"
       id="path4228" />
    <path
       inkscape:connector-curvature="0"
       id="path1094"
       style="fill:#009ab4;fill-opacity:1;fill-rule:nonzero;stroke:none;stroke-width:0.13835503"
       d="m 13.706131,16.502064 c 0.331063,0.195162 0.332845,0.511686 0.004,0.706853 -0.328878,0.195185 -0.863956,0.195185 -1.195026,0 -0.331068,-0.195167 -0.332849,-0.511691 -0.004,-0.706853 0.328876,-0.195174 0.864092,-0.195174 1.195026,0" />
    <path
       inkscape:connector-curvature="0"
       id="path1096"
       style="fill:#03596d;fill-opacity:1;fill-rule:nonzero;stroke:none;stroke-width:0.13835503"
       d="m 13.252176,16.954702 h -0.317101 v -1.192834 h 0.317101 z" />
    <path
       inkscape:connector-curvature="0"
       id="path1100"
       style="fill:#078599;fill-opacity:1;fill-rule:nonzero;stroke:none;stroke-width:0.13835503"
       d="m 14.110338,14.959951 c 0,0.540216 -0.428962,0.978235 -0.958016,0.978235 -0.529054,0 -0.958015,-0.438019 -0.958015,-0.978235 0,-0.540217 0.428961,-0.978225 0.958015,-0.978225 0.529054,0 0.958016,0.438008 0.958016,0.978225" />
    <path
       inkscape:connector-curvature="0"
       id="path1136"
       style="fill:#03596d;fill-opacity:1;fill-rule:nonzero;stroke:none;stroke-width:0.13835503"
       d="m 13.152311,13.981726 c -0.119258,0 -0.233314,0.0224 -0.338601,0.063 0.013,-5.7e-4 0.02572,-0.0023 0.03889,-0.0023 0.424037,0 0.767839,0.35091 0.767839,0.784038 0,0.433111 -0.343802,0.784027 -0.767839,0.784027 -0.235088,0 -0.445122,-0.107931 -0.586012,-0.277791 0.143626,0.355111 0.486062,0.605074 0.885727,0.605074 0.52905,0 0.958012,-0.438008 0.958012,-0.978224 0,-0.540211 -0.428962,-0.978231 -0.958012,-0.978231" />
    <path
       inkscape:connector-curvature="0"
       id="path1094-3"
       style="fill:#009ab4;fill-opacity:1;fill-rule:nonzero;stroke:none;stroke-width:0.13835503"
       d="m 15.433663,17.346553 c 0.331058,0.195168 0.332845,0.511687 0.0038,0.706859 -0.328875,0.195179 -0.863955,0.195179 -1.195023,0 -0.331066,-0.195172 -0.33285,-0.511691 -0.004,-0.706859 0.328876,-0.195173 0.86409,-0.195173 1.195023,0" />
    <path
       inkscape:connector-curvature="0"
       id="path1096-6"
       style="fill:#03596d;fill-opacity:1;fill-rule:nonzero;stroke:none;stroke-width:0.13835503"
       d="M 14.97971,17.799192 H 14.662607 V 16.606358 H 14.97971 Z" />
    <path
       inkscape:connector-curvature="0"
       id="path1100-0"
       style="fill:#078599;fill-opacity:1;fill-rule:nonzero;stroke:none;stroke-width:0.13835503"
       d="m 15.837865,15.80444 c 0,0.540216 -0.428954,0.978236 -0.958008,0.978236 -0.529054,0 -0.958016,-0.43802 -0.958016,-0.978236 0,-0.540217 0.428962,-0.978225 0.958016,-0.978225 0.529054,0 0.958008,0.438008 0.958008,0.978225" />
    <path
       inkscape:connector-curvature="0"
       id="path1136-6"
       style="fill:#03596d;fill-opacity:1;fill-rule:nonzero;stroke:none;stroke-width:0.13835503"
       d="m 14.879845,14.826215 c -0.119256,0 -0.233313,0.02235 -0.338601,0.063 0.013,-5.71e-4 0.02572,-0.0023 0.03889,-0.0023 0.424038,0 0.767841,0.350909 0.767841,0.784038 0,0.433112 -0.343803,0.784027 -0.767841,0.784027 -0.235088,0 -0.445122,-0.107931 -0.586009,-0.27779 0.143625,0.355111 0.486057,0.605074 0.885724,0.605074 0.529051,0 0.958009,-0.438003 0.958009,-0.978225 0,-0.540205 -0.428958,-0.978231 -0.958009,-0.978231" />
    <path
       inkscape:connector-curvature="0"
       id="path1632"
       style="fill:#03596d;fill-opacity:1;fill-rule:nonzero;stroke:none;stroke-width:0.4645963"
       d="M 4.8894887,14.487301 C 5.6919143,14.095832 6.3421464,13.145128 6.3396172,12.366476 6.3370572,11.586104 5.6828128,11.27276 4.879882,11.664229 4.0754347,12.056541 3.4252,13.005109 3.4282359,13.78548 c 0.00257,0.779091 0.6568039,1.093706 1.4612528,0.701821 M 4.8728124,9.5075317 c 2.0381703,-0.9933902 3.6935863,-0.1950936 3.7001643,1.7818763 0.00713,1.977379 -3.4852742,7.146688 -3.6693205,7.419046 -0.1850593,-0.0922 -3.7021819,-1.845481 -3.7092601,-3.822016 -0.0066,-1.977379 1.6407512,-4.385505 3.6784167,-5.3789063" />
  </g>
</svg>
