<?xml version="1.0" encoding="utf-8"?>
<!-- Generator: Adobe Illustrator 23.0.3, SVG Export Plug-In . SVG Version: 6.00 Build 0)  -->
<svg version="1.1" id="Capa_1" xmlns="http://www.w3.org/2000/svg" xmlns:xlink="http://www.w3.org/1999/xlink" x="0px" y="0px"
	 viewBox="0 0 484.5 484.5" style="enable-background:new 0 0 484.5 484.5;" xml:space="preserve">
<style type="text/css">
	.st0{fill:#00ACC1;}
	.st1{fill:#5DDEF4;}
</style>
<g>
	<path class="st0" d="M422.8,205.8C422.8,343.4,249,452,249,452S75.2,343.4,75.2,205.8C75.2,109.9,153.1,32,249,32
		S422.8,109.9,422.8,205.8z"/>
	<circle class="st1" cx="249" cy="208.5" r="127.5"/>
	<path d="M249,72.4c-75.1,0-136,60.9-136,136s60.9,136,136,136s136-60.9,136-136C384.9,133.3,324.1,72.5,249,72.4z M249,327.5
		c-65.8,0-119-53.2-119-119s53.2-119,119-119s119,53.2,119,119C367.9,274.1,314.7,327.4,249,327.5z"/>
	<path d="M249,24.8c-99.9,0.1-180.9,81.1-181,181c0,58.2,30.8,120.4,89,179.8c26.7,27.2,56.3,51.6,88.3,72.6c2.4,1.4,5.3,1.4,7.7,0
		c32-21,61.5-45.3,88.3-72.6c58-59.4,88.7-121.6,88.7-179.8C429.9,105.9,348.9,24.9,249,24.8L249,24.8z M249,443.3
		C223.7,426.5,82.5,326.6,82.5,205.8c0-92,74.6-166.5,166.5-166.5s166.5,74.6,166.5,166.5C415.5,326.5,274.3,426.5,249,443.3z"/>
</g>
<g>
	<g id="directions-bus">
		<path d="M177.1,246.5c0,8.1,3.6,15.3,9,19.8v16.2c0,5.4,3.6,9,9,9h9c5.4,0,9-3.6,9-9v-9h71.9v9c0,5.4,3.6,9,9,9h9c5.4,0,9-3.6,9-9
			v-16.2c5.4-4.5,9-11.7,9-19.8v-89.8c0-31.4-32.3-35.9-71.9-35.9s-71.9,4.5-71.9,35.9V246.5z M208.6,255.4
			c-7.2,0-13.5-6.3-13.5-13.5c0-7.2,6.3-13.5,13.5-13.5S222,234.8,222,242C222,249.1,215.8,255.4,208.6,255.4z M289.4,255.4
			c-7.2,0-13.5-6.3-13.5-13.5c0-7.2,6.3-13.5,13.5-13.5s13.5,6.3,13.5,13.5C302.9,249.1,296.6,255.4,289.4,255.4z M302.9,201.5
			H195.1v-44.9h107.8V201.5z"/>
	</g>
</g>
</svg>
