<?xml version="1.0"?>
<svg xmlns="http://www.w3.org/2000/svg" xmlns:xlink="http://www.w3.org/1999/xlink" version="1.1" id="Capa_1" x="0px" y="0px" viewBox="0 0 297 297" style="enable-background:new 0 0 297 297;" xml:space="preserve" width="512px" height="512px" class=""><g><g>
	<path d="M128.464,128.586c0-3.896,3.157-7.052,7.052-7.052h25.969c3.895,0,7.052,3.156,7.052,7.052v27.574h16.195V57.73h-72.463   v98.429h16.195V128.586z M157.156,69.595h17.313c3.895,0,7.052,3.157,7.052,7.053c0,3.895-3.157,7.052-7.052,7.052h-17.313   c-3.895,0-7.052-3.157-7.052-7.052C150.105,72.752,153.262,69.595,157.156,69.595z M157.156,93.466h17.313   c3.895,0,7.052,3.157,7.052,7.053c0,3.895-3.157,7.052-7.052,7.052h-17.313c-3.895,0-7.052-3.157-7.052-7.052   C150.105,96.623,153.262,93.466,157.156,93.466z M122.53,69.595h17.313c3.895,0,7.052,3.157,7.052,7.053   c0,3.895-3.157,7.052-7.052,7.052H122.53c-3.895,0-7.052-3.157-7.052-7.052C115.479,72.752,118.636,69.595,122.53,69.595z    M115.479,100.519c0-3.896,3.157-7.053,7.052-7.053h17.313c3.895,0,7.052,3.157,7.052,7.053c0,3.895-3.157,7.052-7.052,7.052   H122.53C118.636,107.57,115.479,104.413,115.479,100.519z" data-original="#000000" class="active-path" data-old_color="#000000" fill="#00C652"/>
	<rect x="142.567" y="135.638" width="11.865" height="20.521" data-original="#000000" class="active-path" data-old_color="#000000" fill="#00C652"/>
	<path d="M148.5,0C85.715,0,34.636,51.093,34.636,113.895c0,25.087,7.998,48.883,23.13,68.813   c13.627,17.949,32.583,31.639,53.777,38.933l27.602,69.025c1.53,3.825,5.235,6.334,9.355,6.334c4.12,0,7.824-2.509,9.355-6.334   l27.602-69.025c21.194-7.294,40.15-20.983,53.778-38.933c15.132-19.931,23.13-43.727,23.13-68.813   C262.364,51.093,211.285,0,148.5,0z M96.562,170.263c-3.895,0-7.052-3.156-7.052-7.052c0-3.896,3.157-7.052,7.052-7.052h1.604   V50.679c0-3.896,3.157-7.053,7.052-7.053h86.566c3.895,0,7.052,3.157,7.052,7.053V156.16h1.604c3.894,0,7.052,3.157,7.052,7.052   s-3.157,7.052-7.052,7.052L96.562,170.263z" data-original="#000000" class="active-path" data-old_color="#000000" fill="#00C652"/>
</g></g> </svg>
