<?xml version="1.0" encoding="UTF-8" standalone="no"?>
<svg
   xmlns:dc="http://purl.org/dc/elements/1.1/"
   xmlns:cc="http://creativecommons.org/ns#"
   xmlns:rdf="http://www.w3.org/1999/02/22-rdf-syntax-ns#"
   xmlns:svg="http://www.w3.org/2000/svg"
   xmlns="http://www.w3.org/2000/svg"
   xmlns:sodipodi="http://sodipodi.sourceforge.net/DTD/sodipodi-0.dtd"
   xmlns:inkscape="http://www.inkscape.org/namespaces/inkscape"
   height="512pt"
   viewBox="-91 0 512 512"
   width="512pt"
   version="1.1"
   id="svg34"
   sodipodi:docname="mobile-map.svg"
   inkscape:version="0.92.4 (5da689c313, 2019-01-14)">
  <metadata
     id="metadata40">
    <rdf:RDF>
      <cc:Work
         rdf:about="">
        <dc:format>image/svg+xml</dc:format>
        <dc:type
           rdf:resource="http://purl.org/dc/dcmitype/StillImage" />
      </cc:Work>
    </rdf:RDF>
  </metadata>
  <defs
     id="defs38" />
  <sodipodi:namedview
     pagecolor="#ffffff"
     bordercolor="#666666"
     borderopacity="1"
     objecttolerance="10"
     gridtolerance="10"
     guidetolerance="10"
     inkscape:pageopacity="0"
     inkscape:pageshadow="2"
     inkscape:window-width="1920"
     inkscape:window-height="1009"
     id="namedview36"
     showgrid="false"
     inkscape:zoom="0.48889805"
     inkscape:cx="-299.3559"
     inkscape:cy="163.44099"
     inkscape:window-x="1366"
     inkscape:window-y="34"
     inkscape:window-maximized="1"
     inkscape:current-layer="svg34" />
  <path
     d="m164.875 53.875h13.375v15.523438h-13.375zm0 0"
     fill="#008adf"
     id="path2" />
  <path
     d="m18.5 208.253906h158.5v280.078125h-158.5zm0 0"
     fill="#00ff8d"
     id="path4" />
  <path
     d="m165 429h48.300781v59.332031h-48.300781zm0 0"
     fill="#00dd7b"
     id="path6" />
  <path
     d="m235.4375 27-70.4375 77-.125 152 149.125-148-8-94.332031zm0 0"
     fill="#ebb100"
     id="path8" />
  <path
     d="m165 88.5-.125 153.5-42.875 47-70.5-77zm0 0"
     fill="#ffda2d"
     id="path10" />
  <path
     d="m16.667969 179 26.664062 23.332031 121.542969-132.933593v-42.398438l-132.335938-13.332031-19.347656 36.34375zm0 0"
     fill="#3aaaff"
     id="path12" />
  <path
     d="m164.875 315.613281-47.875 46.386719 47.875 45zm0 0"
     fill="#3aaaff"
     id="path14" />
  <path
     d="m319.121094 415.5.28125-84.570312-81.714844-81.714844 79.472656-79.472656-11.160156-73.691407-177.882812 177.882813-65.433594-65.433594 150.410156-150.40625c5.855469-5.859375 5.855469-15.355469 0-21.214844-5.859375-5.859375-15.355469-5.855468-21.214844 0l-150.40625 150.40625-12.367187-12.363281c-5.855469-5.859375-15.355469-5.859375-21.210938 0-5.859375 5.855469-5.859375 15.355469 0 21.210937l99.007813 99.011719-93.710938 93.714844 5.308594 79.542969 85.410156-85.410156 118.046875 118.050781c2.929688 2.929687 6.769531 4.394531 10.605469 4.394531 3.839844 0 7.679688-1.464844 10.609375-4.394531 5.855469-5.859375 5.855469-15.355469 0-21.214844l-118.050781-118.046875 70.140625-70.140625zm0 0"
     fill="#f3eee9"
     id="path16" />
  <path
     d="m300 174.332031-76 83.335938 90 90zm0 0"
     fill="#ebb100"
     id="path18" />
  <path
     d="m202 282.226562-37.125 39.800782v104.304687l90.125 72 59-19.664062-10.667969-87zm0 0"
     fill="#008adf"
     id="path20" />
  <g
     fill="#e9dfda"
     id="g28">
    <path
       d="m213.09375 36.878906c-5.859375-5.859375-15.355469-5.855468-21.214844 0l-27.003906 27.007813v42.425781l48.21875-48.21875c5.855469-5.859375 5.855469-15.355469 0-21.214844zm0 0"
       id="path22" />
    <path
       d="m243.171875 479.828125-78.296875-78.292969v42.425782l57.082031 57.082031c2.929688 2.929687 6.769531 4.394531 10.605469 4.394531 3.839844 0 7.679688-1.464844 10.605469-4.394531 5.859375-5.855469 5.859375-15.355469.003906-21.214844zm0 0"
       id="path24" />
    <path
       d="m237.6875 249.214844 79.472656-79.472656-11.160156-73.691407-141.125 141.125v84.851563l30.386719-30.386719 123.859375 123.859375.28125-84.570312zm0 0"
       id="path26" />
  </g>
  <path
     d="m285 0h-240c-24.8125 0-45 20.1875-45 45v422c0 24.8125 20.1875 45 45 45h240c24.8125 0 45-20.1875 45-45v-422c0-24.8125-20.1875-45-45-45zm15 467c0 8.285156-6.714844 15-15 15h-240c-8.285156 0-15-6.714844-15-15v-422c0-8.285156 6.714844-15 15-15h29.960938c8.28125 0 15 6.714844 15 15s6.714843 15 15 15h120c8.28125 0 15-6.714844 15-15s6.714843-15 15-15h30.039062c8.285156 0 15 6.714844 15 15zm0 0"
     fill="#00429b"
     id="path30" />
  <path
     d="m285 0h-120.125v60h60.085938c8.28125 0 15-6.714844 15-15s6.714843-15 15-15h30.039062c8.285156 0 15 6.714844 15 15v422c0 8.285156-6.714844 15-15 15h-120.125v30h120.125c24.8125 0 45-20.1875 45-45v-422c0-24.8125-20.1875-45-45-45zm0 0"
     fill="#002659"
     id="path32" />
  <g
     id="g914"
     transform="matrix(0.32097993,0,0,0.32097993,85.294668,154.15921)">
    <g
       id="g855">
	<path
   id="path847"
   d="m 243.15,0 v 104.4 c 44.11,0 80,35.88 80,80 0,44.11 -35.89,80 -80,80 V 486.3 L 389.58,302.2 C 415.87,268.95 429.77,228.99 429.77,186.62 429.77,83.72 346.05,0 243.15,0 Z"
   style="fill:#cd2a00"
   inkscape:connector-curvature="0" />

	<path
   id="path849"
   d="m 323.15,184.4 c 0,-44.12 -35.89,-80 -80,-80 v 160 c 44.11,0 80,-35.89 80,-80 z"
   style="fill:#d8d7da"
   inkscape:connector-curvature="0" />

	<path
   id="path851"
   d="m 163.15,184.4 c 0,-44.12 35.89,-80 80,-80 V 0 C 140.25,0 56.53,83.72 56.53,186.62 c 0,42.37 13.9,82.33 40.23,115.62 L 243.15,486.3 V 264.4 c -44.11,0 -80,-35.89 -80,-80 z"
   style="fill:#ff3501"
   inkscape:connector-curvature="0" />

	<path
   id="path853"
   d="m 163.15,184.4 c 0,44.11 35.89,80 80,80 v -160 c -44.11,0 -80,35.88 -80,80 z"
   style="fill:#ffffff"
   inkscape:connector-curvature="0" />

</g>
    <g
       id="g857">
</g>
    <g
       id="g859">
</g>
    <g
       id="g861">
</g>
    <g
       id="g863">
</g>
    <g
       id="g865">
</g>
    <g
       id="g867">
</g>
    <g
       id="g869">
</g>
    <g
       id="g871">
</g>
    <g
       id="g873">
</g>
    <g
       id="g875">
</g>
    <g
       id="g877">
</g>
    <g
       id="g879">
</g>
    <g
       id="g881">
</g>
    <g
       id="g883">
</g>
    <g
       id="g885">
</g>
  </g>
</svg>
