<?xml version="1.0" encoding="utf-8"?>
<!-- Generator: Adobe Illustrator 23.0.3, SVG Export Plug-In . SVG Version: 6.00 Build 0)  -->
<svg version="1.1" id="Capa_1" xmlns="http://www.w3.org/2000/svg" xmlns:xlink="http://www.w3.org/1999/xlink" x="0px" y="0px"
	 viewBox="0 0 448 448" style="enable-background:new 0 0 448 448;" xml:space="preserve">
<style type="text/css">
	.st0{fill:#0B9D58;}
	.st1{fill:#64C083;}
</style>
<g id="Capa_1">
	
		<image style="overflow:visible;opacity:0.75;" width="754" height="437" xlink:href="2677F2EE.png"  transform="matrix(1 0 0 1 -358 9)">
	</image>
	<g>
		<g>
			<path class="st0" d="M-42.1,165.3c0,120.5-152.2,215.6-152.2,215.6s-152.2-95.1-152.2-215.6c0-84,68.2-152.2,152.2-152.2
				S-42.1,81.3-42.1,165.3z"/>
			<circle class="st1" cx="-194.3" cy="167.6" r="111.7"/>
			<path d="M-194.3,48.5c-65.8,0-119.1,53.3-119.1,119.1s53.3,119.1,119.1,119.1s119.1-53.3,119.1-119.1
				C-75.2,101.8-128.5,48.6-194.3,48.5z M-194.3,271.8c-57.6,0-104.2-46.6-104.2-104.2s46.6-104.2,104.2-104.2S-90,110-90,167.6
				C-90.1,225.1-136.7,271.8-194.3,271.8z"/>
			<g>
				<image style="overflow:visible;" width="348" height="412" xlink:href="2677F2F2.png"  transform="matrix(1 0 0 1 25 -1)">
				</image>
				<g>
					<path d="M-194.3,6.7c-87.5,0.1-158.4,71-158.5,158.5c0,51,26.9,105.4,77.9,157.4c23.4,23.9,49.3,45.2,77.3,63.6
						c2.1,1.3,4.7,1.3,6.7,0c28-18.4,53.9-39.6,77.3-63.6c50.9-52,77.8-106.5,77.8-157.4C-35.8,77.8-106.7,6.8-194.3,6.7L-194.3,6.7
						z M-194.3,373.3c-22.1-14.7-145.8-102.2-145.8-208c0-80.5,65.3-145.8,145.8-145.8S-48.4,84.7-48.4,165.3
						C-48.4,271-172.1,358.5-194.3,373.3z"/>
				</g>
			</g>
			<g>
				<g>
					<g>
						<rect x="-240.5" y="146.1" width="18.5" height="43.1"/>
						<rect x="-252.8" y="201.5" width="117" height="18.5"/>
						<rect x="-203.5" y="146.1" width="18.5" height="43.1"/>
						<polygon points="-194.3,90.6 -252.8,121.4 -252.8,133.7 -135.7,133.7 -135.7,121.4 						"/>
						<rect x="-166.5" y="146.1" width="18.5" height="43.1"/>
					</g>
				</g>
			</g>
		</g>
	</g>
</g>
</svg>
